<svg xmlns="http://www.w3.org/2000/svg" width="620.991" height="26.84" viewBox="0 0 620.991 26.84">
  <path id="path2987" d="M170.286,274.758c-3.085-.036-8.283-.088-11.551-.117-11.635-.1-18.828-.176-19.8-.2-.543-.016-2.695-.048-4.782-.072s-4.312-.062-4.945-.085-2.116-.053-3.3-.067c-3.89-.048-7.465-.139-10.3-.264-1.1-.048-2.143-.073-2.324-.055s-.228.006-.1-.026a30.1,30.1,0,0,0-3.4-.081c-1.994-.012-3.845-.038-4.114-.057a1.237,1.237,0,0,1-.675-.23c-.212-.223-.559-.257-3.713-.366-1.176-.041-3.022-.127-4.1-.191s-2.356-.131-2.833-.149c-1.363-.05-1.338-.174.08-.409a36.419,36.419,0,0,1,5.06-.443,17.265,17.265,0,0,0,3.694-.434c.006-.042-1.416-.123-3.441-.2-.542-.02-2.321-.055-3.952-.08s-3.8-.084-4.82-.134c-1.134-.055-3.413-.1-5.864-.107-4.352-.019-6.214-.106-6.488-.3a11.345,11.345,0,0,0-2.065-.27,10.615,10.615,0,0,1-1.735-.205c.1-.025-.019-.035-.257-.022a12.081,12.081,0,0,1-3.233-.26c-.616-.207-.326-.4.6-.394a1.538,1.538,0,0,0,.493-.04c0-.023,1.012-.045,2.238-.048s2.283-.031,2.348-.06a3.358,3.358,0,0,1,.732-.051,4.82,4.82,0,0,0,.826-.052,2.649,2.649,0,0,1,.543-.054c.182,0,.255.021.162.045s.267.044.8.046a3.094,3.094,0,0,0,.979-.071c.006-.04.157-.057.336-.037s.329.012.333-.017a8.315,8.315,0,0,0-2.367-.1c-.782.013-2.087-.009-2.9-.047s-1.7-.078-1.97-.088-.753-.038-1.07-.063-.874-.033-1.236-.018c-.844.033-1.12-.044-.468-.131a1.3,1.3,0,0,1,.5-.018c0,.027.111.024.249-.006a8.213,8.213,0,0,1,1.75-.133c0,.031.149.057.341.058s.28-.019.2-.043a24.017,24.017,0,0,1,3.1,0,3.888,3.888,0,0,0,.937-.009,5.277,5.277,0,0,1,1.512-.027c-.308.08.755.053,1.181-.029a4.546,4.546,0,0,1,1.222-.023c1.046.073,1.4.072.779,0-.365-.043-.2-.055.668-.048.635.005,2.275-.014,3.642-.043s2.885-.054,3.371-.056c1.446-.006,1.059-.195-.871-.424-1.1-.131-1.624-.228-1.5-.28a1.173,1.173,0,0,1,.56-.027,6.586,6.586,0,0,0,1.034.01c.367-.023,1.222-.042,1.9-.041a7.1,7.1,0,0,0,1.828-.144c.749-.183.857-.287.444-.426-.18-.06-.192-.1-.028-.077a1.913,1.913,0,0,0,.766-.172,3.513,3.513,0,0,1,.841-.244c.2-.022-.222-.043-.948-.047-.976-.005-1.189-.021-.817-.059s.243-.053-.574-.058c-.593,0-1.333-.029-1.644-.059s-1.931-.152-3.6-.273c-3.347-.243-5.294-.3-12.41-.385-5.453-.063-6.066-.077-6.92-.159-.87-.083-5.367-.218-8.223-.247-1.5-.015-2.828-.066-3.781-.145-.809-.067-2.211-.142-3.115-.167a37.05,37.05,0,0,1-4.09-.265c0-.023.868-.086,1.922-.14,1.619-.082,2.989-.093,8.853-.071,4.684.017,7.35,0,8.206-.04,1.237-.064,2.422-.049,5.443.068.779.03,2.993.066,4.921.08s3.789.053,4.134.086a17.9,17.9,0,0,0,1.839.023c.666-.021,1.341-.031,1.5-.024.589.027,10.647.053,11.768.03,1.9-.038,4.284-.061,7.569-.073,1.7-.007,3.263-.038,3.465-.071.358-.058-.247-.09-1.334-.07-.228,0-.41-.022-.4-.057s-.2-.052-.466-.036a3.907,3.907,0,0,1-.871-.056,1.25,1.25,0,0,0-.678-.014c-.23.058-.282.058-.277,0s-.225-.062-.621-.043a2.04,2.04,0,0,1-.835-.069c-.115-.055-.047-.108.15-.118a5.1,5.1,0,0,0,1.37-.232,5.1,5.1,0,0,0-1.623-.254c-.176.017-.229-.005-.12-.05.152-.062.021-.075-.547-.052-.594.024-.7.011-.527-.061.326-.133-.368-.18-.935-.062-.311.064-.424.071-.311.018.2-.093-1.323-.249-1.886-.194-.194.019-.235.006-.095-.03s.088-.064-.1-.065-.355.036-.362.082c-.018.118-.671.1-.682-.017-.007-.083-.051-.081-.291.013-.155.061-.239.125-.186.141a1.684,1.684,0,0,1-.543.036c-.773.007-.811-.038-.1-.121.411-.048.119-.059-1.34-.052a9.69,9.69,0,0,1-1.665-.042c.111-.029-.1-.04-.466-.025-.387.015-.661,0-.656-.039s-.167-.048-.383-.027c-.276.027-.312.007-.123-.067a1.677,1.677,0,0,0,.356-.182,5,5,0,0,1,2.021-.082c.539.043.794.08.566.081-.812.005-.414.115.431.118.621,0,.813-.019.687-.079-.1-.046-.022-.1.163-.116.215-.021.187-.066-.078-.125-.351-.077-.335-.086.1-.056a6.634,6.634,0,0,0,.994-.018c.374-.043.351-.048-.113-.025-.495.025-.549.005-.344-.122a1.453,1.453,0,0,1,.515-.18c.486-.052-.024-.273-.555-.241-.345.021-.455,0-.369-.075s-.055-.1-.539-.1c-.364.005-.474,0-.243-.02s.345-.051.254-.077.139-.082.51-.124.58-.093.463-.114.072-.037.421-.036c.52,0,.547-.008.154-.052a2.171,2.171,0,0,0-.727.01,1.283,1.283,0,0,1-.453.028c-.206-.037.442-.271.888-.321.365-.041.821-.3.466-.26a2.186,2.186,0,0,1-.674-.076c-.329-.094-.271-.1.526-.092.565.009.869-.012.824-.056s.039-.067.175-.063c.679.021,1.076-.01,1.087-.086.007-.046.17-.083.362-.082s.269-.022.171-.05.01-.064.24-.078c.253-.016.19-.029-.158-.033a1.912,1.912,0,0,1-.571-.05,7.7,7.7,0,0,0-1.15-.039,3.288,3.288,0,0,1-.965-.045c.1-.027-.124-.051-.509-.052s-.6-.028-.487-.058.039-.056-.173-.057-.291-.04-.163-.093c.186-.076.138-.08-.292-.022s-.511.053-.5-.016a1.529,1.529,0,0,1,.678-.111c.4-.016.672-.073.683-.145.015-.1-.126-.114-.9-.09-.749.023-.81.018-.337-.03.535-.055.527-.069-.112-.2a7.459,7.459,0,0,0-1.179-.143c-.994,0-.1-.059,1.241-.076a4.624,4.624,0,0,1,1.181.034c-.109.028-.05.052.132.053a2.57,2.57,0,0,0,.506-.044,10.714,10.714,0,0,1,1.264-.03c.6.008,1.264-.007,1.479-.034a1.7,1.7,0,0,1,.6.011,2.746,2.746,0,0,0,.83.007c.343-.029.969-.049,1.391-.045,1.173.012,5.229-.031,5.513-.059.221-.022,3.838-.084,4.946-.085.58,0,.556-.264-.031-.341-.267-.035-.508-.134-.535-.22s-.205-.146-.46-.131-.334-.006-.227-.05-.159-.089-.8-.116c-1.083-.045-1.84-.171-1.524-.252.114-.03-.088-.041-.463-.026-.474.019-.661,0-.651-.069.008-.053-.281-.11-.642-.128-.733-.036-.841-.1-.255-.163.243-.024.294-.014.137.027-.138.036-.128.062.023.058.708-.018,1.1.018,1.084.1-.017.115.782.074.942-.049.067-.052,0-.091-.152-.087-.915.023-1.427-.023-1.412-.126.009-.063.164-.1.342-.079s.333-.016.342-.079.224-.114.477-.113a2.3,2.3,0,0,0,.67-.084c.115-.047.072-.072-.1-.056a.992.992,0,0,1-.438-.041c-.073-.039-.1-.027-.06.027s-.063.1-.227.1-.295-.031-.289-.068-.208-.019-.474.04c-.355.078-.384.117-.109.148.215.024.084.036-.308.03-.606-.01-1.011-.159-.427-.156a.9.9,0,0,0,.457-.166c.177-.133.4-.166,1.058-.163a3.292,3.292,0,0,0,.842-.052,2.1,2.1,0,0,1,.669-.053c.7,0,.876.085.3.142-.611.06-.048.126.99.115,1.352-.014,1.683-.075.471-.087-.944-.01-.947-.01-.131-.046l.832-.036-.733-.072c-.844-.083-.956-.181-.2-.177.283,0,.419.027.3.057s-.055.056.137.057.357-.049.367-.11.237-.111.575-.109c.486,0,.477-.008-.071-.08a1.652,1.652,0,0,0-.805-.011,2.51,2.51,0,0,1-.789.031c-.576-.038-.578-.046-.039-.132a7.83,7.83,0,0,1,1.046-.09c.426,0,.627-.065.538-.18a1.262,1.262,0,0,1,.482-.04c.283,0,.433-.022.333-.051-.237-.069.4-.131.841-.083.233.026.215.062-.058.115s-.294.078-.028.079c.387,0,.5-.066.417-.244-.067-.139.568-.2,2.085-.192a4.466,4.466,0,0,0,1.166-.057,10.921,10.921,0,0,1,1.909-.056c1.09,0,2.172-.018,2.4-.047a11.677,11.677,0,0,1,1.378-.016,5.9,5.9,0,0,0,1.4-.057c.245-.052.31-.075.145-.053a4.741,4.741,0,0,1-1.2-.2,4.2,4.2,0,0,0-.906-.191,2.147,2.147,0,0,1-.654-.053,1.658,1.658,0,0,1-.626-.165c.011-.034.164-.016.341.038a3.753,3.753,0,0,0,.867.1c.4,0,.451-.014.184-.062-.2-.035-.272-.1-.164-.145a.581.581,0,0,1,.466-.005c.2.056.271.046.279-.036.014-.14-.736-.323-1.1-.27-.151.022-.161.009-.023-.03a1.766,1.766,0,0,1,.554-.036c.166.018.306.008.311-.022s-.132-.071-.3-.09c-.418-.046,0-.208.758-.3.339-.039.525-.1.413-.13-.132-.038.068-.044.575-.015.636.036.7.03.377-.032-.488-.091-.5-.26-.025-.285.328-.017.418-.113.316-.338a1.468,1.468,0,0,0-.733-.1c-.4,0-.535-.021-.327-.043.52-.057.857-.225.525-.261a1.07,1.07,0,0,0-.442.038.729.729,0,0,1-.347.039c-.1-.017-.051-.066.116-.109a2.029,2.029,0,0,1,.969.028c.65.1.666.1.707,0,.023-.059.112-.075.2-.036a1.574,1.574,0,0,0,.494.072c.186,0,.259-.036.162-.083s-.071-.08.059-.075.66-.018,1.181-.052a11.263,11.263,0,0,1,1.244-.028c.164.018.3,0,.307-.03s.146-.047.312-.029a1.726,1.726,0,0,0,.505-.019,4.46,4.46,0,0,1,.774-.049,29.383,29.383,0,0,0,3-.15c.786-.065,1.636-.118,1.888-.116a2.077,2.077,0,0,0,.6-.066,24.437,24.437,0,0,1,3.23-.023,5.016,5.016,0,0,0,.909,0c.992-.042,3.092-.024,4.611.039a3.705,3.705,0,0,0,1.406-.095c.249-.074.368-.159.264-.189-.267-.077-2.5-.14-6.136-.172-1.725-.015-3.46-.059-3.856-.1s-.838-.068-.982-.064-.8,0-1.461-.006a3.465,3.465,0,0,1-1.355-.124c-.127-.091.009-.112.722-.111.838,0,.85,0,.256-.082-.556-.075-.3-.081,2.4-.058,1.664.014,3.023.042,3.021.06a6.03,6.03,0,0,0,.907.02c2.243-.035,5.664-.068,6.928-.067a6.664,6.664,0,0,0,1.227-.044c-.085-.025.115-.047.444-.051,1.3-.012,1.615-.021,2.191-.063a6.771,6.771,0,0,0,1.263-.25,4.672,4.672,0,0,1,1.959-.216,1.278,1.278,0,0,0,.611,0,2.193,2.193,0,0,1,.713-.011c.226.059,5.556.083,5.907.026a2.507,2.507,0,0,1,.587.023,25.094,25.094,0,0,0,3.01,0c.2-.02.873-.01,1.5.022s3.873.083,7.224.113,8.022.075,10.382.1c12.717.137,16.6,2.168,24.513,2.2,6.216.022,8.669.049,8.662.094s.113.046.432,0c.446-.059,2.437-.067,8.165-.03,1.725.011,3.286.019,3.468.017l3.973-.041c2-.021,3.887-.024,4.187-.006a3.58,3.58,0,0,0,.726-.015c.1-.026,1.416-.047,2.927-.047s3.6-.022,4.644-.049,3.8-.051,6.123-.055,5.268-.012,6.541-.018,2.59.014,2.925.045.531.034.434.006,1.211-.043,3.022-.032c1.759.01,3.723-.009,4.364-.043a5.719,5.719,0,0,1,1.4,0c.16.045.238.046.248,0a20.423,20.423,0,0,1,2.411-.064c3.278,0,13.256.034,15.279.057.907.01,2.99.009,4.628,0,3.952-.029,10.084-.02,10.079.016s1.581.031,4.234-.035c1.331-.033,2.819-.04,3.308-.016,1.144.056,3.362.08,3.369.036a6.261,6.261,0,0,1,.913-.03c9.24.041,26.681,2.012,27.27,1.954.142-.014.255,0,.251.024a4.88,4.88,0,0,0,.983.029c.545-.011,1.25,0,1.566.024a12.129,12.129,0,0,0,1.89.032c-.065-.019,2.437-.018,5.562,0s5.68.041,5.679.046.927.019,2.062.03,2.065,0,2.068-.016a9.355,9.355,0,0,1,1.156.013,11.563,11.563,0,0,0,1.3.011c.082-.021,1.5-.031,3.142-.023,1.784.01,3-.006,3.006-.04s.109-.031.247.006a21.513,21.513,0,0,0,3.129.009q.251-.055.248,0a6.9,6.9,0,0,0,1.236.055c.682,0,1.581.022,2,.051a10.069,10.069,0,0,0,1.373,0c.594-.051,1.98-.066,9.115-.1,1.819-.009,4.8-.033,6.619-.053s5.913-.028,9.092-.018,6.379,0,7.109-.019,4.747-.026,8.927-.014c9.816.029,17.2-1.984,20.145-2.037l6.154-.109c2.1-.037,5.6-.089,7.785-.115s4.644-.057,5.464-.069c2.686-.039,5.419-.017,7.628.062,1.393.05,5.629.092,11.815.118,5.3.022,9.746.051,9.872.064s5.725.064,12.444.113,13.4.106,14.855.127c8.148.116,14.334-1.836,27.9-1.784,1.908.007,3.988.023,4.622.036,1.372.027,7.723.1,13.693.164,12.9.132,17.714.174,26.408.233,5.267.036,10.094.081,10.727.1s2.339.05,3.791.067c2.687.032,5.754.107,6.149.15.12.013,1.232.041,2.47.062s3.139.067,4.225.1,2.418.074,2.961.089,2.193.085,3.667.157,2.99.131,3.368.132a2.5,2.5,0,0,1,.681.05.9.9,0,0,0,.406.049c2.231.013,7.561.122,8.4.172a11.769,11.769,0,0,1,1.732.232,29.55,29.55,0,0,0,4.536.431c2.284.074,6.238.154,7.067.142a2.917,2.917,0,0,1,.838.048c-.006.033.094.044.22.023a4.257,4.257,0,0,1,.9.076c.37.062,1.663.205,2.874.319,1.765.166,2.667.213,4.543.239,2.477.034,2.914.084,2.637.3a10.786,10.786,0,0,1-2.956.239,6.212,6.212,0,0,0-.97.052,10.577,10.577,0,0,1-1.333.05,42.286,42.286,0,0,0-4.476.167,29.816,29.816,0,0,0,4.955.31c1.332.019,4.426.058,6.876.086,4.948.058,5.466.076,5.711.192.361.172-4.263.733-8.031.974a10.338,10.338,0,0,0-2.257.291c-.728.229-.412.341,1.548.548a5.64,5.64,0,0,1,1.37.231c-.007.047.2.124.47.172.753.134.548.269-.571.374-.564.053-1.678.2-2.476.317a17.261,17.261,0,0,1-3.074.234,11.857,11.857,0,0,0-2.194.135c-.314.067-.5.141-.419.165s0,.044-.186.043a3.052,3.052,0,0,0-.744.123c-.223.068-.291.107-.15.086.349-.052,1.237.114.973.182-.123.032.04.044.388.029.33-.014,0,.022-.739.08s-1.812.1-2.39.1-1.437.02-1.908.048c-.629.037-.855.033-.855-.018s-.155-.026-.344.026c-.65.178-.053.376,1.581.526a18.136,18.136,0,0,1,2.034.276,12.258,12.258,0,0,0,1.784.207c2.646.147,3.015.438.686.541-1.448.064-2.161.241-1.754.438.212.1.2.148-.037.147-.61,0-1.214.134-1.2.272s-.012.138-2.811.235c-.457.016-1.287.093-1.844.171s-1.427.177-1.934.218a2.989,2.989,0,0,0-.932.157,9.74,9.74,0,0,1-2.644.226c-1.562.021-2.207.087-2.295.235-.073.123,1.2.391,1.864.394a11.858,11.858,0,0,1,2.225.4,16.761,16.761,0,0,1-3.524.178c-1.259.012-3.037.045-3.95.074-1.512.048-6.91.179-8.14.2-.514.008-.769.207-.268.209.149,0,.115.048-.075.1s-.245.121-.121.143c.414.074.157.784-.312.862-.245.041-1.13.08-1.967.086-1.351.01-2.255.094-1.959.182.057.017-.108.063-.368.1a1.329,1.329,0,0,1-.465.029.943.943,0,0,0-.392.023,2.464,2.464,0,0,1-.826,0,6.969,6.969,0,0,0-1.429,0c-1.686.11-1.163.281,1.1.36,2.534.089,3.1.129,2.7.193-.108.017-2.46.03-5.226.028-5.883,0-6.562.038-7.1.447a4.134,4.134,0,0,1-1.132.447,3.016,3.016,0,0,0-1.379.577,6.078,6.078,0,0,1-1.134.069,4.023,4.023,0,0,0-1.3.12.905.905,0,0,1-.47.075c-.159-.018-.292-.006-.3.025a10.851,10.851,0,0,1-1.525.2c-2.366.221-2.719.409-.994.528.806.056.839.1.258.332-.426.172.645.288,4.185.452,3.427.159,4.381.264,3.378.371-.623.066-5.1-.018-12.138-.229a22.149,22.149,0,0,0-5.277.148,14.2,14.2,0,0,1-3.7.284,13.355,13.355,0,0,0-3.555.3,15.916,15.916,0,0,0,3.128.187c1.267.011,2.755.165,2.013.208-.232.014-.649.061-.925.106a1.9,1.9,0,0,1-.5.047,14.829,14.829,0,0,0-2.437.244,18.042,18.042,0,0,1-2.936.305c-1.7-.024-3.966,0-3.972.049a8.055,8.055,0,0,0,2.048.307c.179-.018.222-.005.1.027s-.08.076.1.1.242.061.129.091-.028.092.191.139c.623.134-.012.185-2.538.2-1.271.009-2.984.039-3.806.066s-3.584.094-6.137.15-5.477.145-6.5.2c-1.043.055-2.751.095-3.9.09-1.126,0-3.13.038-4.454.095-2.273.1-3.052.1-13.965.024-6.356-.044-12.819,1.9-14.361,1.884-4.019-.053-8.959-.134-9.637-.16-.32-.012-4.183-.054-8.586-.094-6.3-.057-8.96-.058-12.478,0-2.46.037-6.98.073-10.045.078s-6.116.019-6.78.03c-2.293.037-10.157.092-14.772.1-2.546.006-7.16.024-10.253.039s-9.342.028-13.887.027-8.71,0-9.257.013-4.281.016-8.3.019-7.738.011-8.266.02c-1.016.016-3.519.035-12.375.09-6.951.044-12.172.1-16.482.184-1.874.036-3.976.062-4.67.059s-1.7.016-2.228.043-1.905.057-3.054.069-3.536.064-5.306.117-4.112.107-5.2.118-3.1.041-4.472.065-3.379.052-4.472.063-3.6.051-5.581.09-4.809.08-6.294.092-3.554.037-4.6.055-3.724.031-5.954.028-5.173.012-6.539.034c-2.7.044-8.44.072-12.9.063-1.545,0-3.481.013-4.3.035s-6.475.033-12.564.023-11.391-.008-11.783,0-3.592.026-7.111.032-7.143.015-8.052.021-4.258.015-7.44.02-7.052.02-8.6.034-2.961.017-3.141.008-2.487,0-5.127.023-6.287.047-8.107.056-3.83.025-4.467.034-3.168.025-5.623.035-4.54.024-4.633.033-2.03.025-4.3.035-4.433.027-4.8.038c-.669.02-24.078-2.009-34.2-2.041-3-.01-7.975-.047-11.061-.082Zm-67.036-7.213c.165,0,.033-.055-.293-.119a14.981,14.981,0,0,0-2.9-.11c-1.269,0-2.364.033-2.433.066a22.668,22.668,0,0,0,3.838.177Zm8.253-3.021a1.088,1.088,0,0,0-.327-.026c-.182,0-.334.025-.339.058s.142.044.327.026A1.287,1.287,0,0,0,111.5,264.524Zm-16.6-1.741a2.919,2.919,0,0,0-.5-.057c-.291-.02-.425-.012-.314.021A2.4,2.4,0,0,0,94.908,262.783Zm3.943-1.767c-.318-.056-.357-.05-.19.031a.8.8,0,0,0,.4.071c.1-.017.01-.062-.21-.1Zm2.744-.66c-.318-.056-.357-.05-.19.031a.8.8,0,0,0,.4.071C101.909,260.441,101.814,260.4,101.594,260.356Zm-2.47-.332a1.542,1.542,0,0,0-.341-.057c-.08,0-.149.025-.154.055s.149.057.341.057S99.232,260.056,99.124,260.025Zm13.511-2.61a3.683,3.683,0,0,0-.634,0c-.113.018.081.032.429.031C112.816,257.447,112.9,257.434,112.635,257.415Zm-.04-.147a4.171,4.171,0,0,1-1.268-.358,1.766,1.766,0,0,1,.5.037c.642.1,1.032.031.5-.082-.465-.1-1.321-.026-1.343.116-.007.044-.128.068-.27.052a.379.379,0,0,0-.322.079c-.043.072.147.109.576.111a1.8,1.8,0,0,1,.632.059,2.43,2.43,0,0,0,.735.057c.638,0,.675-.009.258-.07Zm-1.964-.128a1.287,1.287,0,0,1,.339-.058c.185-.018.332-.006.327.026s-.158.059-.339.058A1.085,1.085,0,0,1,110.631,257.14ZM116.648,256c.031-.069-.021-.094-.115-.056a1.176,1.176,0,0,1-.464.037c-.162-.018-.211.007-.11.055C116.227,256.165,116.584,256.146,116.648,256Zm-1.692-.053c.37-.1-.032-.118-.5-.028-.269.052-.3.084-.079.085A2.82,2.82,0,0,0,114.956,255.948Zm11.011-1.874a2.725,2.725,0,0,0-.487-.056,1.2,1.2,0,0,0-.5.02,1.118,1.118,0,0,0,.487.056A2.9,2.9,0,0,0,125.966,254.075ZM70.212,268.746c0-.029.159-.068.343-.086s.33.006.322.054-.162.087-.343.086S70.208,268.775,70.212,268.746Zm14.159-4.541a4.346,4.346,0,0,1,.787-.031c.245.015.092.04-.358.058C84.248,264.253,84.12,264.246,84.371,264.205Zm4.7.03c-.339-.039-.361-.058-.073-.062a12.228,12.228,0,0,0,1.308-.06,2.077,2.077,0,0,1,.626.026c.143.042.088.051-.146.025s-.381-.006-.388.046C90.382,264.308,89.8,264.319,89.071,264.235Zm-1.682-.133a2.142,2.142,0,0,1,.707-.006c.21.037.077.059-.389.063C87.174,264.163,87.1,264.149,87.389,264.1Zm8.436-.82c.007-.048.159-.071.338-.051s.322.06.317.089-.157.052-.338.051S95.817,263.329,95.825,263.281Zm.508-.933c.565-.173.622-.178.543-.046a.863.863,0,0,1-.507.143C96.02,262.466,96.012,262.446,96.333,262.348Zm2.275-2.043c-.276-.031-.117-.056.494-.079,1.107-.042,1.318-.016.517.064a6.015,6.015,0,0,1-1.01.015Zm7.243-3.754a3.687,3.687,0,0,1,.634,0c.261.019.181.032-.2.033-.349,0-.542-.013-.429-.031Zm1.025-.219a3.687,3.687,0,0,1,.634,0c.261.019.181.032-.2.033C106.956,256.363,106.763,256.349,106.876,256.331Zm5.99-.691c-.006-.059.078-.092.185-.073s.111.067.01.107-.188.031-.194-.035Zm12-3.059c-.293-.034-.33-.056-.094-.056a2.8,2.8,0,0,1,.589.058c.243.071.129.07-.5,0Z" transform="translate(-50 -250.042)" fill="#d96750"/>
</svg>
